:SAMPLES-PER-SECOND 30
:FULLY-SPECIFIED
:DEGREES
113
root  34.73596648 36.56076747 -14.22173658 10.17622185 -5.294866085 4.105279446
lowerback  -7.586249828 -0.4196830392 -1.093980193
upperback  -4.12680006 0.06116110086 -4.45223999
thorax  -0.006601030007 0.2219610065 -3.984859943
lowerneck  -4.166069984 -15.91819954 -11.06050014
upperneck  8.145950317 -21.75419807 11.95499992
head  5.646113396 -10.40499973 3.632960081
lclavicle  0 -4.497500157e-015 -2.743230041e-014
lhumerus  -48.22129822 29.85659981 61.77370071
lradius  0.006620147731 -6.507048965e-006 29.56279945
lwrist  4.824992743e-007 -3.790274832e-007 -29.6760006
lhand  -3.519067976e-031 -36.64609909 -10.67959976
lfingers  90 7.125020027 -90
lthumb  94.69805145 -25.52427101 100.7978745
rclavicle  0 -4.497500157e-015 -2.743230041e-014
rhumerus  12.27130032 -40.7743988 -33.25230026
rradius  -5.16745672e-007 2.214343908e-008 83.0802002
rwrist  -2.867388866e-005 0.09882131219 -174.9109955
rhand  -3.135749727e-031 4.134659767 -5.91203022
rfingers  -90 -7.125020027 -90
rthumb  -84.31228638 -9.918152809 -59.96178055
rfemur  -12.21128464 14.56855488 12.01361465
rtibia  -0.6180123687 -2.0049932 19.07477188
rfoot  1.305278182 -23.02180862 -33.94824982
rtoes  4.145581722 19.58655548 -102.2023315
lfemur  -4.472828865 -16.21761322 -23.02898026
ltibia  6.76723671 -0.7843862772 7.722929955
lfoot  0.7649034858 -20.79977989 36.6721611
ltoes  -8.464479446 -18.17884064 -115.4912338
114
root  34.74147827 36.55842458 -14.22149478 10.12793827 -5.248703003 4.09075737
lowerback  -7.62678957 -0.3951649666 -1.119839787
upperback  -4.150670052 0.1023769975 -4.476240158
thorax  -0.006327929907 0.2452169955 -3.992419958
lowerneck  -4.127470016 -15.95680046 -11.12959957
upperneck  8.120019913 -21.80950165 12.00230026
head  5.652609825 -10.43330002 3.651299953
lclavicle  0 -4.497500157e-015 -2.743230041e-014
lhumerus  -48.2364006 30.18759918 61.49860001
lradius  0.006620147731 -6.507048965e-006 29.3010006
lwrist  4.824992743e-007 -3.790274832e-007 -30.13349915
lhand  -3.52201194e-031 -36.6427002 -10.64449978
lfingers  90 7.125020027 -90
lthumb  94.68919373 -25.48996162 100.7911148
rclavicle  0 -4.497500157e-015 -2.743230041e-014
rhumerus  13.19139767 -40.93450165 -33.1529007
rradius  -5.16745672e-007 2.214343908e-008 81.74949646
rwrist  -2.867388866e-005 0.09833150357 -174.6840057
rhand  -3.142948114e-031 4.397830009 -5.803209782
rfingers  -90 -7.125020027 -90
rthumb  -84.18997192 -10.02579021 -59.69453812
rfemur  -12.09926605 14.58552361 12.03015137
rtibia  -0.6007621884 -1.996850371 18.97072411
rfoot  1.332649112 -22.98197746 -34.02367401
rtoes  4.164633274 19.58738136 -102.2591782
lfemur  -4.610156059 -16.19559288 -22.94756699
ltibia  6.614613056 -0.7528916001 8.046719551
lfoot  0.8151420951 -21.03749847 36.64942169
ltoes  -8.480561256 -18.18003082 -115.5427704
115
root  34.74334657 36.55718105 -14.22131306 10.1129961 -5.188827038 4.130603313
lowerback  -7.594449997 -0.3578039408 -0.9926866889
upperback  -4.175469875 0.1482010037 -4.549270153
thorax  -0.04737349972 0.2675949931 -4.137650013
lowerneck  -4.093830109 -15.99009991 -11.11900043
upperneck  8.103540421 -21.86320114 12.06470013
head  5.654409885 -10.45580006 3.664050102
lclavicle  0 -4.497500157e-015 -2.743230041e-014
lhumerus  -48.19189835 30.1996994 61.34249878
lradius  0.006620147731 -6.507048965e-006 29.15770149
lwrist  4.824992743e-007 -3.790274832e-007 -30.33530045
lhand  -3.51930109e-031 -36.90190125 -10.64080048
lfingers  90 7.125020027 -90
lthumb  94.80967712 -25.47720909 101.0679169
rclavicle  0 -4.497500157e-015 -2.743230041e-014
rhumerus  14.06489944 -41.1332016 -33.10630035
rradius  -5.16745672e-007 2.214343908e-008 80.38880157
rwrist  -2.867388866e-005 0.09784006327 -174.3950043
rhand  -3.150693577e-031 4.392399788 -5.688370228
rfingers  -90 -7.125020027 -90
rthumb  -84.13249969 -10.12464046 -59.68947601
rfemur  -12.07624149 14.54239941 12.00989342
rtibia  -0.6246932149 -2.01969862 18.98405647
rfoot  1.325214744 -22.99573898 -34.0334053
rtoes  4.156970501 19.58816528 -102.2363129
lfemur  -4.548082352 -16.23484612 -23.00603104
ltibia  6.660373211 -0.7424963117 7.952685833
lfoot  0.827641964 -21.05383873 36.66086197
ltoes  -8.470718384 -18.18449783 -115.5112228
116
root  34.74622411 36.55658932 -14.22120192 10.12048435 -5.148735046 4.171228409
lowerback  -7.579639912 -0.3219369948 -0.9167433977
upperback  -4.173689842 0.1926479936 -4.590799809
thorax  -0.05093140155 0.2889330089 -4.220900059
lowerneck  -4.064290047 -16.01399994 -11.09939957
upperneck  8.036529541 -21.89829826 12.11069965
head  5.636050224 -10.47200012 3.674890041
lclavicle  0 -4.497500157e-015 -2.743230041e-014
lhumerus  -48.14210129 30.06990051 61.36840057
lradius  0.006620147731 -6.507048965e-006 29.14390182
lwrist  4.824992743e-007 -3.790274832e-007 -30.3010006
lhand  -3.546919171e-031 -36.84749985 -10.31579971
lfingers  90 7.125020027 -90
lthumb  94.71563721 -25.16011238 100.9804001
rclavicle  0 -4.497500157e-015 -2.743230041e-014
rhumerus  15.0883007 -41.3758049 -33.1155014
rradius  -5.16745672e-007 2.214343908e-008 78.90619659
rwrist  -2.867388866e-005 0.09734681249 -174.1399994
rhand  -3.159756845e-031 4.399310112 -5.553919792
rfingers  -90 -7.125020027 -90
rthumb  -84.06176758 -10.24101543 -59.67051315
rfemur  -12.10376453 14.50108242 11.97507858
rtibia  -0.649944067 -2.046478987 19.03621101
rfoot  1.284426212 -23.03346825 -34.06926727
rtoes  4.15977335 19.58893013 -102.2446747
lfemur  -4.472475052 -16.30753899 -23.08556557
ltibia  6.733271122 -0.7923824787 7.804426193
lfoot  0.7971875668 -20.88846016 36.63352203
ltoes  -8.505496979 -18.16868973 -115.6227112
117
root  34.747762 36.55615078 -14.22116888 10.12777615 -5.097658157 4.188792706
lowerback  -7.571519852 -0.3169040382 -0.9369843602
upperback  -4.162380219 0.1993439943 -4.583089828
thorax  -0.04321689904 0.2922010124 -4.200729847
lowerneck  -4.051179886 -16.02370071 -11.10429955
upperneck  7.957960129 -21.90639877 12.11240005
head  5.611010075 -10.47939968 3.678560019
lclavicle  0 -4.497500157e-015 -2.743230041e-014
lhumerus  -48.15000153 30.07229996 61.38999939
lradius  0.006620147731 -6.507048965e-006 29.16209984
lwrist  4.824992743e-007 -3.790274832e-007 -30.26259995
lhand  -3.53913306e-031 -36.76279831 -10.4211998
lfingers  90 7.125020027 -90
lthumb  94.69857025 -25.26647568 100.8994293
rclavicle  0 -4.497500157e-015 -2.743230041e-014
rhumerus  16.21660042 -41.58160019 -33.25189972
rradius  -5.16745672e-007 2.214343908e-008 77.53340149
rwrist  -2.867388866e-005 0.0968515873 -173.6660004
rhand  -3.157733921e-031 4.284060001 -5.584770203
rfingers  -90 -7.125020027 -90
rthumb  -84.10736847 -10.20873928 -59.7862854
rfemur  -12.13131905 14.50335503 11.96592999
rtibia  -0.6681802273 -2.024260759 19.08674049
rfoot  1.257038236 -22.9836216 -34.11491394
rtoes  4.142246246 19.58969688 -102.1923828
lfemur  -4.3532691 -16.3380127 -23.14861488
ltibia  6.833337307 -0.7926616073 7.590137482
lfoot  0.7874287963 -20.80281067 36.6535759
ltoes  -8.499914169 -18.17123222 -115.6048126
118
root  34.74887638 36.55585342 -14.22121994 10.13337708 -5.04575491 4.200374126
lowerback  -7.525489807 -0.3020789921 -0.9364270568
upperback  -4.174129963 0.218878001 -4.600409985
thorax  -0.07951489836 0.3023039997 -4.217810154
lowerneck  -4.04531002 -16.04319954 -11.09739971
upperneck  7.91381979 -21.93119812 12.11880016
head  5.599110126 -10.49230003 3.678200006
lclavicle  0 -4.497500157e-015 -2.743230041e-014
lhumerus  -48.15169907 30.02129936 61.3913002
lradius  0.006620147731 -6.507048965e-006 29.14520264
lwrist  4.824992743e-007 -3.790274832e-007 -30.2954998
lhand  -3.527751119e-031 -36.7322998 -10.56270027
lfingers  90 7.125020027 -90
lthumb  94.71398163 -25.40646553 100.8795395
rclavicle  0 -4.497500157e-015 -2.743230041e-014
rhumerus  17.2166996 -41.72929764 -33.31340027
rradius  -5.16745672e-007 2.214343908e-008 76.22979736
rwrist  -2.867388866e-005 0.09635421634 -173.1040039
rhand  -3.151764372e-031 4.401539803 -5.672420025
rfingers  -90 -7.125020027 -90
rthumb  -84.12197876 -10.13885975 -59.67910767
rfemur  -12.16309643 14.5263958 11.97452164
rtibia  -0.6875355244 -1.971647739 19.14448547
rfoot  1.258122087 -22.86616135 -34.12030029
rtoes  4.104270458 19.5904808 -102.0791016
lfemur  -4.281317234 -16.33932304 -23.18610573
ltibia  6.897044659 -0.7768413424 7.451042175
lfoot  0.7807613015 -20.78347778 36.64310074
ltoes  -8.497570992 -18.17154884 -115.5852432
